<?xml version="1.0" encoding="UTF-8"?>
<svg id="Layer_1" data-name="Layer 1" xmlns="http://www.w3.org/2000/svg" viewBox="0 0 1024 1024">
  <defs>
    <style>
      .cls-1 {
        fill: #231f20;
      }
    </style>
  </defs>
  <path class="cls-1" d="M521.15,267.841c-4.167,2.873-8.719-3.057-4.862-6.335,64.329-54.664,133.603-104.441,209.403-141.177,38.151-18.489,78.973-34.388,121.599-37.62,16.327-1.877,35.791,1.078,50.719,7.902,18.491,8.452,32.585,24.695,39.548,43.705,4.003,10.928,5.128,23.375,5.377,34.937,1.189,55.246-22.183,107.724-47.088,155.795-5.438,10.42-11.063,20.742-16.87,30.961-3.191,5.696-6.753,11.393-9.444,17.339l-.276.618c1.849,5.993,4.271,11.865,6.272,17.818,3.237,9.731,6.07,19.592,8.489,29.558,17.957,74.112,13.593,151.879-12.542,223.517-34.096,94.484-108.23,171.934-198.844,214.329-78.924,36.909-168.139,45.555-252.681,24.488-15.801-3.859-31.082-8.924-46.359-14.451-10.142,4.453-23.034,13.062-33.373,18.619-28.093,15.097-57.148,29.224-87.349,39.569-38.797,13.289-92.002,24.427-130.453,5.318-17.47-8.683-29.977-23.433-36.107-41.922-19.477-58.743,18.939-141.312,46.224-192.06,4.214-7.976,8.673-15.821,13.369-23.523,3.548-5.888,7.516-11.761,10.541-17.93l.301-.621c-6.225-16.533-12.441-32.534-16.894-49.686-18.887-74.897-15.015-153.724,11.121-226.41,35.222-95.306,106.849-172.724,199.134-215.234,91.391-42.953,196.131-47.717,291.044-13.239-9.81,7.47-20.336,13.963-30.564,20.834-4.987,3.349-9.855,7.575-15.228,10.203-51.016-11.584-99.468-14.175-151.012-3.769-89.011,17.832-167.246,70.404-217.388,146.081-50.289,75.986-65.896,167.348-47.852,256.255,2.911,15.183,7.462,30.421,12.679,44.964,31.593,88.064,93.129,154.313,177.458,194.201-10.558,8.521-30.573,19.888-42.764,26.291-11.002-4.881-21.578-12.473-31.523-19.199-56.518-38.229-99.275-89.831-129.411-150.73-21.846,34.151-44.005,86.153-54.444,125.525-7.265,27.402-12.953,63.064,2.091,88.635,7.263,12.345,18.981,20.252,32.763,23.702,60.379,15.113,164.304-42.512,215.788-73.757,38.194-23.18,74.097-49.515,109.316-76.955,106.434-82.828,202.677-177.977,286.715-283.457,40.207-50.512,75.232-99.441,106.199-156.168,19.949-36.545,38.626-75.76,48.503-116.39,5.87-24.148,10.098-54.873-3.607-77.092-7.823-12.684-20.684-19.916-34.919-23.262-74.81-17.585-209.859,62.589-272.573,104.512l-80.225,55.311Z"/>
  <path class="cls-1" d="M424.394,383.731c9.409-1.621,20.864.04,29.887,2.903,17.975,5.701,29.513,16.716,38.078,33.191,2.913-4.765,6.33-9.202,10.19-13.237,14.835-15.276,35.93-22.277,56.897-22.523,21.668-.253,44.893,5.601,60.633,21.233,11.475,11.397,18.554,26.48,22.136,42.114,4.654,20.321,3.039,42.731,3.041,63.491l-.037,82.637c-5.897,6.892-12.64,12.44-17.903,18.222-11.275,11.176-19.522,20.033-32.283,32.063l-.023-116.55.043-32.479c.017-9.192.369-18.534-1.109-27.634-1.487-9.158-4.827-18.829-11.358-25.649-6.159-6.43-15.13-9.892-23.969-10.058-11.206-.211-23.331,4.6-31.309,12.47-10.692,10.545-13.756,25.458-13.779,39.973l-.244,104.935c-16.646.521-33.553.162-50.208-.039-.521-26.348-.081-52.81-.022-79.169.031-13.941,1.592-30.74-1.441-44.292-1.852-8.584-6.049-16.486-12.122-22.828-7.291-7.569-17.103-12.042-27.662-12.137-10.428-.094-20.506,4.356-27.83,11.708-6.875,6.9-11.209,16.138-13.231,25.595-3.204,14.979-1.607,32.149-1.6,47.456l-.005,73.62c-16.636.681-33.537.215-50.198.042l.047-125.571c.002-25.361.728-50.972-.235-76.304,15.514-.638,31.338-.454,46.863-.018.982,7.522,2.102,15.024,3.359,22.504.537-.731,1.082-1.456,1.635-2.176,10.988-14.234,26.201-21.26,43.758-23.492Z"/>
  <path class="cls-1" d="M689.561,174.429c1.267-.134,2.231.027,3.396.516,6.358,2.665,12.457,6.958,18.355,10.52,47.502,28.943,88.145,67.863,119.118,114.067,5.934,8.808,12.929,18.613,16.948,28.456-1.888,4.618-4.871,9.029-7.404,13.337-5.951,10.122-12.016,20.005-18.686,29.674l-5.969-11.806c-37.879-72.814-94.43-125.348-169.215-158.952,13.419-9.922,28.983-17.529,43.457-25.812Z"/>
  <path class="cls-1" d="M719.886,315.319c3.481-.724,4.729,2.299,5.461,5.042,1.097,4.111,1.63,8.492,2.771,12.652,4.549,16.587,14.569,25.82,30.973,30.467,3.739,1.059,9.934,1.747,13.121,3.314,3.452,1.697,4.145,6.062.762,8.185-2.771,1.739-10.45,2.588-14.081,3.617-15.651,4.437-26.193,14.955-30.574,30.614-1.059,3.785-2.057,12.822-3.955,15.513-1.784,2.529-4.924,2.872-6.794.253-2.074-2.905-3.129-12.507-4.208-16.525-3.863-14.386-13.605-24.765-27.852-29.29-3.778-1.2-14.987-2.789-17.146-5.104-1.839-1.973-1.231-4.959.939-6.417,2.597-1.745,11.11-3.139,14.69-4.273,15.58-4.935,25.168-14.253,29.57-30.101.989-3.563,2.481-14.485,4.363-16.622.466-.529,1.262-1.18,1.96-1.325Z"/>
  <path class="cls-1" d="M413.764,690.62c1.272,1.43,1.585,3.511.736,5.239-1.413,2.874-8,3.763-10.956,4.72-11.103,3.597-17.248,9.129-20.859,20.354-1.07,3.326-1.921,11.051-6.121,11.576-6.56.821-6.897-8.533-8.351-13.152-3.124-9.928-9.341-15.441-19.149-18.525-4.203-1.321-13.834-1.785-12.524-8.094.855-4.117,9.923-5.441,13.474-6.752,9.946-3.673,15.479-9.705,18.647-19.785.957-3.047,1.965-10.956,5.098-12.096,4.148-1.509,5.789,1.873,6.789,5.13,3.481,11.329,4.475,18.853,16.267,24.693,4.028,1.995,14.613,4.067,16.949,6.691Z"/>
  <path class="cls-1" d="M324.998,324.648c-4.997,5.266-4.742,11.457-6.686,17.78-1.018,3.311-3.762,6.184-7.048,3.342-2.5-2.163-3.235-10.901-4.605-14.515-2.194-5.79-6.071-9.243-11.692-11.64-3.158-1.347-11.281-2.674-13.03-4.793-1.579-1.913-1.065-4.759,1.034-6.113,2.683-1.73,8.774-2.769,12.215-4.312,5.541-2.485,9.063-5.7,11.234-11.449,1.614-4.274,1.825-9.882,3.496-13.679,1.57-3.568,5.458-3.916,7.369-.443,3.171,5.765,1.917,13.518,6.942,19.63,5.594,6.804,12.919,6.579,19.89,9.923,4.473,2.145,3.668,6.481-.833,8.146-6.554,2.426-12.957,2.507-18.287,8.124Z"/>
  <path class="cls-1" d="M273.554,390.406c-1.413-1.374-2.021-6.831-2.926-9.084-1.312-3.267-3.499-5.29-6.677-6.724-2.152-.971-8.457-2.059-9.411-3.736-2.757-4.846,5.655-5.93,8.482-7.127,3.712-1.571,6.276-3.55,7.788-7.383.829-2.102,1.595-8.6,3.657-9.237,4.729-1.46,4.683,6.011,5.89,9.055,1.244,3.137,3.686,5.486,6.671,6.983,2.725,1.367,7.043,1.869,9.283,3.359,1.411.939,1.886,2.926.887,4.345-1.173,1.666-7.723,2.719-10.071,3.835-6.985,3.321-6.259,7.361-8.42,13.577-.797,2.293-2.96,4.268-5.152,2.137Z"/>
</svg>